<?xml version="1.0" standalone="no"?>
<!DOCTYPE svg PUBLIC "-//W3C//DTD SVG 20010904//EN"
 "http://www.w3.org/TR/2001/REC-SVG-20010904/DTD/svg10.dtd">
<svg version="1.0" xmlns="http://www.w3.org/2000/svg"
 width="824.000000pt" height="824.000000pt" viewBox="0 0 824.000000 824.000000"
 preserveAspectRatio="xMidYMid meet">
<metadata>
Created by potrace 1.11, written by Peter Selinger 2001-2013
</metadata>
<g transform="translate(0.000000,824.000000) scale(0.100000,-0.100000)"
fill="#000000" stroke="none">
<path d="M3650 6052 l-65 -3 1 -1488 c2 -1367 4 -1589 18 -1661 38 -185 115
-329 245 -457 55 -55 161 -133 180 -133 5 0 11 -4 13 -9 6 -15 183 -79 269
-97 62 -13 135 -18 284 -18 l200 -1 0 325 0 325 -179 2 c-176 2 -181 2 -234
30 -67 34 -111 86 -127 150 -10 37 -13 390 -13 1536 0 819 -3 1491 -6 1494 -6
6 -473 10 -586 5z"/>
<path d="M315 4900 c-81 -8 -149 -42 -211 -106 -95 -97 -88 13 -89 -1374 -1
-668 0 -1220 2 -1226 3 -9 94 -11 326 -10 l322 1 5 1030 5 1030 605 2 c567 1
610 0 680 -18 176 -45 290 -138 360 -292 16 -37 30 -75 30 -86 0 -11 3 -22 8
-25 13 -8 15 -120 15 -893 0 -672 2 -743 16 -747 22 -6 602 -6 623 0 15 4 16
66 16 822 -1 619 -5 835 -14 892 -7 41 -16 89 -18 105 -7 39 -18 75 -51 160
-96 253 -289 465 -540 593 -114 58 -263 109 -370 125 -16 3 -43 8 -58 12 -33
9 -1572 13 -1662 5z"/>
<path d="M5493 4898 c-133 -23 -247 -136 -270 -267 -8 -49 -10 -2408 -1 -2431
6 -17 25 -18 322 -18 226 0 318 3 323 12 4 6 8 470 8 1031 l0 1020 615 -1
c338 0 631 -4 650 -8 207 -45 341 -165 411 -367 22 -64 22 -67 23 -864 1 -440
5 -806 9 -812 8 -13 634 -16 642 -3 6 10 6 1567 0 1644 -7 94 -47 275 -65 301
-4 6 -15 33 -24 61 -9 28 -29 71 -44 95 -15 24 -33 56 -41 71 -21 41 -120 158
-176 208 -27 25 -56 51 -64 58 -7 7 -26 21 -40 30 -14 9 -33 23 -43 31 -29 25
-156 90 -235 122 -82 32 -246 75 -327 85 -69 9 -1625 11 -1673 2z"/>
</g>
</svg>
